<svg xmlns="http://www.w3.org/2000/svg" viewBox="0 0 256 256" role="img" aria-label="Little Bloom math Mystery Puzzle V2 icon">
  <defs>
    <linearGradient id="bg" x1="32" y1="18" x2="224" y2="238" gradientUnits="userSpaceOnUse">
      <stop offset="0" stop-color="#9b7cff"/>
      <stop offset="0.55" stop-color="#7656d8"/>
      <stop offset="1" stop-color="#4f35aa"/>
    </linearGradient>
    <linearGradient id="leaf" x1="80" y1="168" x2="183" y2="219" gradientUnits="userSpaceOnUse">
      <stop offset="0" stop-color="#b8f28b"/>
      <stop offset="1" stop-color="#39bf7b"/>
    </linearGradient>
    <filter id="shadow" x="-20%" y="-20%" width="140%" height="150%" color-interpolation-filters="sRGB">
      <feDropShadow dx="0" dy="10" stdDeviation="10" flood-color="#2d225f" flood-opacity=".28"/>
    </filter>
  </defs>

  <rect width="256" height="256" rx="58" fill="url(#bg)"/>
  <circle cx="207" cy="48" r="22" fill="#fff" opacity=".14"/>
  <circle cx="48" cy="205" r="30" fill="#fff" opacity=".10"/>

  <g filter="url(#shadow)">
    <path d="M65 92c0-14 11-25 25-25h30c-2-4-3-8-3-12 0-13 10-23 23-23s23 10 23 23c0 4-1 8-3 12h8c14 0 25 11 25 25v25c0 7-6 13-13 13-4 0-8-2-10-5-5-7-13-11-22-11-15 0-27 12-27 27 0 9 4 17 11 22 3 2 5 6 5 10 0 7-6 13-13 13H90c-14 0-25-11-25-25V92z" fill="#fff"/>
    <path d="M84 96c0-6 5-11 11-11h84c6 0 11 5 11 11v20c-5-7-13-11-23-11-20 0-36 16-36 36 0 11 5 21 13 28H95c-6 0-11-5-11-11V96z" fill="#f7f3ff"/>
  </g>

  <g transform="translate(0 3)">
    <path d="M92 174c20-24 45-31 77-20-20 24-45 31-77 20z" fill="url(#leaf)" stroke="#178757" stroke-width="5" stroke-linejoin="round"/>
    <path d="M118 180c19-18 34-24 58-25" fill="none" stroke="#178757" stroke-width="4" stroke-linecap="round" opacity=".75"/>
    <path d="M109 157c-22-10-34-26-37-50 22 10 34 26 37 50z" fill="#d9ff9a" stroke="#69b94d" stroke-width="5" stroke-linejoin="round"/>
    <path d="M106 151c-10-18-18-29-30-42" fill="none" stroke="#69b94d" stroke-width="4" stroke-linecap="round" opacity=".75"/>
  </g>

  <g transform="translate(128 104)">
    <circle r="17" fill="#ffe86e" stroke="#172033" stroke-width="5"/>
    <g fill="#ff8fb8" stroke="#172033" stroke-width="5">
      <ellipse cx="0" cy="-34" rx="15" ry="24"/>
      <ellipse cx="29" cy="-17" rx="15" ry="24" transform="rotate(60 29 -17)"/>
      <ellipse cx="29" cy="17" rx="15" ry="24" transform="rotate(120 29 17)"/>
      <ellipse cx="0" cy="34" rx="15" ry="24"/>
      <ellipse cx="-29" cy="17" rx="15" ry="24" transform="rotate(60 -29 17)"/>
      <ellipse cx="-29" cy="-17" rx="15" ry="24" transform="rotate(120 -29 -17)"/>
    </g>
    <circle r="14" fill="#ffe86e" stroke="#172033" stroke-width="5"/>
  </g>

  <g fill="#172033" font-family="Fredoka, Comic Neue, Arial, sans-serif" font-weight="800">
    <text x="75" y="118" font-size="32">+</text>
    <text x="164" y="128" font-size="31">−</text>
    <text x="94" y="148" font-size="29">?</text>
    <text x="151" y="96" font-size="24">2</text>
  </g>

  <g>
    <rect x="70" y="186" width="116" height="36" rx="18" fill="#172033" opacity=".95"/>
    <text x="128" y="211" text-anchor="middle" fill="#fff" font-family="Fredoka, Comic Neue, Arial, sans-serif" font-size="22" font-weight="800">LB Math</text>
  </g>
</svg>
